<?xml version="1.0" standalone="no"?><!DOCTYPE svg PUBLIC "-//W3C//DTD SVG 1.1//EN" "http://www.w3.org/Graphics/SVG/1.1/DTD/svg11.dtd"><svg t="1526112148853" class="icon" style="" viewBox="0 0 1024 1024" version="1.1" xmlns="http://www.w3.org/2000/svg" p-id="1992" xmlns:xlink="http://www.w3.org/1999/xlink" width="16" height="16"><defs><style type="text/css"></style></defs><path d="M854.436 104.438H131.633v767.5h501.34l221.463-201.627z" fill="#D8EDED" p-id="1993"></path><path d="M636.691 875.689l221.471-201.644H636.691z" fill="#9AC2D7" p-id="1994"></path><path d="M186.557 869.965l82.843-29.231-57.19-46.199z" fill="#221D20" p-id="1995"></path><path d="M175.361 881.303l33.47-98.453 74.64 60.285-108.11 38.168z m40.237-75.098l-17.845 52.437 57.592-20.34-39.747-32.097z" fill="#2B2C2C" p-id="1996"></path><path d="M358.592 725.771l-52.571-49.492-43.514-33.596-50.297 151.852 57.19 46.199 153.717-54.253-21.461 9.279 15.649-10.447z" fill="#F2D2B0" p-id="1997"></path><path d="M404.072 801.516c4.232-2.211 8.828-3.948 13.833-5.203l7.975-3.443-1.532-3.877 3.837-2.558-64.825-65.749-53.092-49.894-51.283-39.614-54.883 165.742 63.957 51.671 135.595-47.857 0.418 0.782z m-183.737-9.373l45.686-137.956 35.231 27.186 52.381 49.271L406.44 784.2l-2.503 1.658-133.179 47.02-50.423-40.735z" fill="#2B2C2C" p-id="1998"></path><path d="M673.565 215.959L265.389 638.048l0.024 0.023 40.608 38.208 414.627-414.618z" fill="#E6BC37" p-id="1999"></path><path d="M306.171 685.983l-50.668-47.698 417.912-432.156 57.135 55.445-424.379 424.409z m-30.865-48.165l30.557 28.773 404.852-404.86-37-35.918-398.409 412.005z" fill="#2A2C2C" p-id="2000"></path><path d="M772.429 311.917L358.592 725.771l64.509 60.71v-0.015l408.168-417.438z" fill="#AC2135" p-id="2001"></path><path d="M423.978 795.072c0.3-0.166 0.6-0.323 0.924-0.489L841.123 368.91l-68.773-66.767-423.746 423.761 73.747 69.413c0.537-0.094 1.082-0.15 1.627-0.245z m348.514-473.38l48.923 47.47-398.52 407.56-54.315-51.102 403.912-403.928z" fill="#2A2C2C" p-id="2002"></path><path d="M720.648 261.661L306.021 676.279l52.571 49.492 413.837-413.854z" fill="#D4751E" p-id="2003"></path><path d="M358.734 735.459l-62.701-59.021 424.536-424.536 61.776 59.953-423.611 423.604z m-42.733-59.321l42.44 39.937 404.07-404.085-41.801-40.585-404.709 404.733z" fill="#2A2C2C" p-id="2004"></path><path d="M721.114 170.779l-1.145-1.208-46.404 46.388 157.704 153.069 39.432-41.745-44.517-46.57-106.625-108.418z" fill="#19201D" p-id="2005"></path><path d="M831.143 275.826L729.389 172.39l1.508-1.477-9.964-10.399a59.875 59.875 0 0 1-6.144 4.414l-51.149 51.11 167.843 162.884 48.819-51.663-49.159-51.433z m-0.095 83.293L683.49 215.896l34.884-34.884 102.788 104.501 39.945 41.816-30.059 31.79z" fill="#292B2B" p-id="2006"></path><path d="M880.603 178.438l-10.739-10.896c-39.494-40.166-104.083-40.711-144.257-1.192l-4.492 4.43-1.556 1.516 106.625 108.417 47.186 47.959 6.049-5.961c40.149-39.542 40.71-104.107 1.184-144.273z" fill="#F6D3A9" p-id="2007"></path><path d="M880.839 330.181c2.519-2.708 5.156-5.267 8.046-7.517 38.113-42.44 37.205-107.913-3.324-149.113l-10.723-10.912c-20.647-20.963-48.243-32.539-77.695-32.539-28.764 0-55.902 11.094-76.432 31.284l-10.999 10.841L872.58 337.776c2.503-2.732 5.227-5.314 8.259-7.595zM730.471 171.3c17.907-17.584 41.579-27.288 66.672-27.288 25.693 0 49.768 10.083 67.763 28.394l10.746 10.912c36.747 37.347 36.25 97.648-1.098 134.435l-1.105 1.074-144.06-146.444 1.082-1.083z" fill="#282B2B" p-id="2008"></path></svg>